<?xml version="1.0" standalone="no"?>
<!DOCTYPE svg PUBLIC "-//W3C//DTD SVG 20010904//EN"
 "http://www.w3.org/TR/2001/REC-SVG-20010904/DTD/svg10.dtd">
<svg version="1.0" xmlns="http://www.w3.org/2000/svg"
 width="4000.000000pt" height="2250.000000pt" viewBox="0 0 4000.000000 2250.000000"
 preserveAspectRatio="xMidYMid meet">

<g transform="translate(0.000000,2250.000000) scale(0.100000,-0.100000)"
fill="#000000" stroke="none">
<path d="M0 11250 l0 -11250 20000 0 20000 0 0 11250 0 11250 -20000 0 -20000
0 0 -11250z m15560 2350 c237 -12 372 -25 467 -46 84 -18 159 -67 235 -153
l46 -53 -85 -147 c-47 -80 -97 -167 -112 -193 l-27 -46 -59 80 c-63 85 -86
101 -195 136 -115 37 -278 46 -845 47 -542 0 -777 -11 -899 -41 -32 -8 -60
-13 -61 -12 -2 2 52 98 119 215 l121 212 100 3 c235 9 1016 7 1195 -2z m-2019
-1293 l-9 -37 1075 0 c612 0 1073 -4 1071 -9 -2 -5 -147 -258 -323 -563 l-320
-555 -470 -4 c-258 -2 -498 -2 -532 -1 -61 4 -63 5 -63 31 0 50 -39 181 -72
244 -18 35 -63 93 -103 133 -121 123 -285 184 -454 171 -42 -4 -98 -13 -126
-21 -27 -9 -50 -14 -51 -13 -3 3 380 666 383 663 1 -1 -2 -18 -6 -39z m12639
-742 l0 -605 -105 0 -105 0 0 605 0 605 105 0 105 0 0 -605z m-3432 513 c23
-40 55 -97 72 -125 l30 -53 -73 0 -73 0 -51 63 c-27 34 -74 90 -102 125 l-53
62 104 0 104 0 42 -72z m177 -307 c72 -36 106 -73 137 -153 22 -55 22 -49 31
-520 l2 -138 -92 0 -92 0 -6 44 -7 44 -50 -38 c-53 -40 -139 -70 -199 -70 -98
0 -203 63 -240 145 -25 54 -25 166 0 220 52 113 183 180 373 192 l100 6 -6 36
c-7 46 -33 81 -77 104 -48 26 -173 18 -255 -15 l-60 -24 -17 58 c-9 31 -17 62
-17 68 0 6 21 20 46 31 77 35 162 49 266 45 86 -3 105 -7 163 -35z m1115 -60
l0 -99 -70 -4 c-76 -4 -109 -21 -147 -77 -35 -51 -43 -118 -43 -351 l0 -220
-105 0 -105 0 0 415 0 415 90 0 90 0 0 -75 c0 -79 10 -94 30 -45 17 41 76 99
124 121 23 10 62 19 89 19 l47 0 0 -99z m619 71 c163 -63 251 -204 251 -402 0
-245 -146 -412 -382 -436 -175 -17 -347 75 -415 223 -78 170 -41 408 82 527
47 46 125 89 192 106 62 15 210 5 272 -18z m2219 -2 c69 -30 143 -111 172
-188 23 -61 37 -160 32 -229 l-3 -43 -280 0 c-310 0 -291 5 -264 -71 20 -57
67 -104 124 -126 74 -29 244 -22 336 13 9 4 17 -11 25 -53 6 -32 13 -65 16
-74 10 -37 -245 -78 -369 -59 -230 35 -363 211 -344 453 15 194 127 347 288
392 76 21 199 14 267 -15z m802 -69 l0 -99 -70 -4 c-76 -4 -109 -21 -147 -77
-35 -51 -43 -118 -43 -351 l0 -220 -105 0 -105 0 0 415 0 415 90 0 90 0 0 -75
c0 -79 10 -94 30 -45 17 41 76 99 124 121 23 10 62 19 89 19 l47 0 0 -99z
m-2428 -198 c3 -266 4 -280 26 -320 27 -51 53 -70 109 -79 57 -9 121 23 159
78 l29 41 3 279 3 278 105 0 104 0 0 -415 0 -415 -89 0 -89 0 -7 60 -7 60 -41
-43 c-66 -67 -125 -91 -227 -91 -75 -1 -91 3 -138 28 -60 33 -96 76 -126 150
-19 47 -21 74 -24 359 l-3 307 105 0 105 0 3 -277z m-11725 -88 c67 -33 136
-110 163 -183 57 -151 -16 -329 -165 -403 -42 -20 -64 -24 -140 -24 -78 0 -97
4 -140 27 -67 35 -122 92 -154 158 -35 73 -37 191 -4 262 41 89 132 164 227
189 54 14 156 1 213 -26z m3145 3 c75 -35 122 -79 157 -149 62 -123 45 -257
-43 -356 -65 -72 -133 -106 -226 -111 -101 -5 -171 21 -244 91 -71 70 -99 143
-94 247 4 90 29 146 90 209 99 100 235 126 360 69z m-3217 -1035 c12 -10 67
-56 121 -102 261 -220 605 -400 918 -481 309 -80 656 -82 953 -4 308 80 613
243 922 492 68 55 136 102 151 104 45 7 88 -11 116 -47 23 -30 26 -42 21 -83
-4 -42 -11 -53 -68 -106 -228 -210 -609 -440 -899 -541 -254 -88 -445 -120
-725 -119 -228 0 -370 20 -580 80 -371 107 -761 325 -1029 575 -101 95 -117
157 -55 219 44 43 107 49 154 13z"/>
<path d="M22767 11359 c-119 -17 -186 -83 -172 -169 16 -93 118 -128 213 -70
55 34 72 73 72 168 l0 82 -27 -1 c-16 -1 -54 -5 -86 -10z"/>
<path d="M24435 11645 c-91 -32 -145 -133 -145 -270 0 -100 22 -166 73 -219
158 -164 370 21 328 285 -19 114 -71 187 -149 209 -47 13 -58 12 -107 -5z"/>
<path d="M26657 11656 c-66 -24 -115 -84 -132 -164 l-7 -32 184 2 183 3 -3 40
c-9 116 -120 190 -225 151z"/>
</g>
</svg>
